#!OML:ASF I:\Actors\actors\Patient Classification 2\Patient 1\Session 1\actor1.ASF
:FULLY-SPECIFIED
:DEGREES
324
root 0.510369 18.6334 5.65794 -0.662036 -2.10793 -3.72774
lowerback 11.2377 1.85674 -3.64553
upperback -1.6632 1.96752 0.0562287
thorax -8.22095 1.12667 1.75633
lowerneck -20.6087 -2.22273 0.195364
upperneck 30.1338 -4.36691 3.02616
head 13.75 -1.44179 0.397158
rclavicle 7.77745e-015 -4.77083e-015
rhumerus -45.86 24.9199 -45.1814
rradius 99.8129
rwrist -25.5318
rhand 31.7285 -41.0462
rfingers 7.12502
rthumb 55.2539 -58.9997
lclavicle 7.77745e-015 -4.77083e-015
lhumerus -27.5462 -20.3744 33.9467
lradius 101.081
lwrist 44.5582
lhand 24.0332 -20.8976
lfingers 7.12502
lthumb 48.2721 1.18724
rfemur 8.44839 3.36688 13.6757
rtibia -3.18055e-015
rfoot -16.2733 -13.2114
rtoes -8.06914
lfemur -6.33146 -2.37585 -14.6352
ltibia 27.7377
lfoot -23.7666 7.58592
ltoes -53.3273
325
root 0.510647 18.6308 5.68015 -0.774351 -2.0433 -3.76851
lowerback 11.1561 1.84699 -3.66031
upperback -1.71127 1.95787 0.0891888
thorax -8.22721 1.12444 1.80278
lowerneck -20.5603 -2.24547 0.142216
upperneck 30.214 -4.38413 3.02605
head 13.7756 -1.4546 0.403861
rclavicle 1.39025e-014 -3.18055e-015
rhumerus -45.1889 24.426 -43.8477
rradius 100.123
rwrist -26.7089
rhand 36.7144 -46.5932
rfingers 7.12502
rthumb 59.6203 -60.766
lclavicle 1.39025e-014 -3.18055e-015
lhumerus -26.8888 -19.3689 32.6814
lradius 101.028
lwrist 45.0035
lhand 24.5507 -20.9026
lfingers 7.12502
lthumb 48.7484 0.953353
rfemur 8.67269 3.32018 13.706
rtibia -7.95139e-015
rfoot -16.2964 -13.0908
rtoes -7.70581
lfemur -6.12095 -2.45555 -14.609
ltibia 27.7212
lfoot -23.838 7.57082
ltoes -53.3327
326
root 0.508977 18.6299 5.70181 -0.841159 -1.9682 -3.82399
lowerback 11.034 1.82136 -3.65489
upperback -1.76913 1.9319 0.127925
thorax -8.21903 1.11351 1.84787
lowerneck -20.5563 -2.25441 0.0223162
upperneck 30.301 -4.37474 3.07595
head 13.8165 -1.45585 0.446189
rclavicle -3.70485e-014 -1.27222e-014
rhumerus -44.5315 23.9639 -42.4954
rradius 100.32
rwrist -27.1415
rhand 36.8283 -46.3587
rfingers 7.12502
rthumb 59.718 -60.4317
lclavicle -3.70485e-014 -1.27222e-014
lhumerus -26.2534 -18.356 31.4068
lradius 100.933
lwrist 45.6198
lhand 25.0243 -20.9092
lfingers 7.12502
lthumb 49.1834 0.731929
rfemur 8.83694 3.25674 13.7537
rtibia 4.29375e-014
rfoot -16.2483 -13.0138
rtoes -7.7737
lfemur -5.96033 -2.56542 -14.5551
ltibia 27.6926
lfoot -23.9097 7.54473
ltoes -53.2825
327
root 0.505056 18.629 5.72378 -0.886259 -1.92908 -3.87094
lowerback 10.8963 1.80311 -3.63536
upperback -1.83899 1.9159 0.138645
thorax -8.21382 1.1062 1.85353
lowerneck -20.5439 -2.22562 0.0355232
upperneck 30.3757 -4.33266 3.05164
head 13.844 -1.4383 0.442132
rclavicle 1.90585e-014 -1.59028e-015
rhumerus -43.9054 23.4911 -41.2234
rradius 100.427
rwrist -27.6443
rhand 37.0224 -45.2576
rfingers 7.12502
rthumb 59.8845 -59.1586
lclavicle 1.90585e-014 -1.59028e-015
lhumerus -25.5694 -17.2909 30.1215
lradius 100.709
lwrist 46.3096
lhand 25.4717 -20.757
lfingers 7.12502
lthumb 49.5938 0.676459
rfemur 8.96573 3.22526 13.8044
rtibia -3.02153e-014
rfoot -16.1606 -12.9746
rtoes -8.17061
lfemur -5.82836 -2.56527 -14.4904
ltibia 27.6519
lfoot -23.8959 7.49704
ltoes -53.3198
328
root 0.501073 18.6262 5.7467 -0.980958 -1.88576 -3.88065
lowerback 10.7973 1.79484 -3.6122
upperback -1.89228 1.91051 0.127342
thorax -8.21271 1.10303 1.83105
lowerneck -20.4997 -2.18936 0.0945621
upperneck 30.401 -4.28904 3.015
head 13.8419 -1.41777 0.425772
rclavicle -1.17625e-014 2.14687e-014
rhumerus -43.2041 22.8806 -39.9401
rradius 100.474
rwrist -28.323
rhand 36.8857 -44.5671
rfingers 7.12502
rthumb 59.7673 -58.5894
lclavicle -1.17625e-014 2.14687e-014
lhumerus -24.8555 -16.1636 28.8699
lradius 100.426
lwrist 46.9291
lhand 26.0092 -20.5573
lfingers 7.12502
lthumb 50.0861 0.620143
rfemur 9.1586 3.19601 13.8198
rtibia -7.95139e-015
rfoot -16.0575 -12.9357
rtoes -8.83705
lfemur -5.63602 -2.6228 -14.4844
ltibia 27.6091
lfoot -23.8947 7.54384
ltoes -53.4963
